<svg width="34" height="60" viewBox="0 0 34 60" fill="none" xmlns="http://www.w3.org/2000/svg">
<path d="M21.1224 17.5738C21.1224 13.3885 23.215 13.3885 25.3077 13.3885H27.8189C28.2382 13.3941 28.6543 13.3157 29.0428 13.1579C29.4312 13 29.7841 12.7659 30.0806 12.4694C30.3771 12.1729 30.6112 11.82 30.7691 11.4316C30.9269 11.0431 31.0053 10.6269 30.9997 10.2077V6.27349C30.9998 5.85223 30.9161 5.43516 30.7537 5.04649C30.5912 4.65782 30.3531 4.30529 30.0533 4.00937C29.7535 3.71345 29.3979 3.48003 29.0071 3.32266C28.6164 3.16529 28.1983 3.08711 27.777 3.09265L21.8339 3.00894C20.1034 2.94201 18.379 3.25137 16.7797 3.91568C15.1803 4.57998 13.7442 5.5834 12.5704 6.8567C11.3966 8.12999 10.513 9.64282 9.98073 11.2908C9.44843 12.9387 9.28006 14.6826 9.48723 16.4019V21.9706C9.48723 22.2468 9.26337 22.4706 8.98723 22.4706H6.18083C5.33722 22.4706 4.52817 22.8058 3.93164 23.4023C3.33512 23.9988 3 24.8079 3 25.6515V29.5857C3 30.4293 3.33512 31.2383 3.93164 31.8348C4.52817 32.4314 5.33722 32.7665 6.18083 32.7665H8.98723C9.26337 32.7665 9.48723 32.9903 9.48723 33.2665V55.2416C9.48723 55.7966 9.7077 56.3289 10.1002 56.7213C10.4926 57.1138 11.0249 57.3343 11.5799 57.3343H19.1553C19.6883 57.3022 20.1888 57.0677 20.5545 56.6786C20.9202 56.2896 21.1234 55.7755 21.1224 55.2416V33.2665C21.1224 32.9903 21.3462 32.7665 21.6224 32.7665H24.8055C25.6491 32.7665 26.4581 32.4314 27.0547 31.8348C27.6512 31.2383 27.9863 30.4293 27.9863 29.5857V25.6515C27.9863 24.8079 27.6512 23.9988 27.0547 23.4023C26.4581 22.8058 25.6491 22.4706 24.8055 22.4706H21.6224C21.3462 22.4706 21.1224 22.2468 21.1224 21.9706V17.5738Z" stroke="white" stroke-width="5" stroke-linecap="round" stroke-linejoin="round"/>
</svg>
