<svg width="16" height="29" viewBox="0 0 16 29" fill="none" xmlns="http://www.w3.org/2000/svg">
<path d="M10.0612 8.24208C10.0612 6.1623 11.1075 6.1623 12.1538 6.1623H13.4094C13.6191 6.1651 13.8272 6.12613 14.0214 6.04768C14.2156 5.96924 14.3921 5.85291 14.5403 5.70558C14.6886 5.55824 14.8056 5.38288 14.8845 5.18984C14.9635 4.99681 15.0027 4.79001 14.9999 4.58167V2.62667C14.9999 2.41734 14.9581 2.21009 14.8768 2.01695C14.7956 1.82381 14.6766 1.64863 14.5267 1.50158C14.3768 1.35453 14.199 1.23854 14.0036 1.16034C13.8082 1.08214 13.5991 1.04329 13.3885 1.04604L10.4169 1.00444C9.5517 0.971184 8.68949 1.12491 7.88983 1.45502C7.09017 1.78513 6.37211 2.28376 5.7852 2.91649C5.19829 3.54921 4.75652 4.30098 4.49037 5.11989C4.22422 5.9388 4.14003 6.80535 4.24361 7.65974V10.1754C4.24361 10.4516 4.01976 10.6754 3.74361 10.6754H2.59042C2.16861 10.6754 1.76408 10.842 1.46582 11.1384C1.16756 11.4348 1 11.8369 1 12.2561V14.2111C1 14.6303 1.16756 15.0323 1.46582 15.3287C1.76408 15.6252 2.16861 15.7917 2.59042 15.7917H3.74361C4.01976 15.7917 4.24361 16.0155 4.24361 16.2917V26.9601C4.24361 27.2359 4.35385 27.5004 4.55008 27.6954C4.7463 27.8904 5.01244 28 5.28994 28H9.07765C9.34413 27.9841 9.59441 27.8675 9.77725 27.6742C9.9601 27.4809 10.0617 27.2254 10.0612 26.9601V16.2917C10.0612 16.0155 10.2851 15.7917 10.5612 15.7917H11.9027C12.3245 15.7917 12.7291 15.6252 13.0273 15.3287C13.3256 15.0323 13.4931 14.6303 13.4931 14.2111V12.2561C13.4931 11.8369 13.3256 11.4348 13.0273 11.1384C12.7291 10.842 12.3245 10.6754 11.9027 10.6754H10.5612C10.2851 10.6754 10.0612 10.4516 10.0612 10.1754V8.24208Z" stroke="white" stroke-width="2" stroke-linecap="round" stroke-linejoin="round"/>
</svg>
