<svg width="58" height="62" viewBox="0 0 58 62" fill="none" xmlns="http://www.w3.org/2000/svg">
<path d="M14.1767 8.48132C14.1884 9.97724 13.611 11.4177 12.5693 12.4914C11.5277 13.5651 10.1054 14.1859 8.60979 14.2196C7.1173 14.1648 5.70289 13.5388 4.65885 12.4708C3.61482 11.4029 3.02096 9.97466 3 8.48132C3.06488 7.02635 3.68057 5.6505 4.72227 4.63266C5.76396 3.61482 7.15371 3.03116 8.60979 3C10.0616 3.03174 11.4465 3.61685 12.4812 4.6357C13.516 5.65454 14.1225 7.03017 14.1767 8.48132ZM3.59952 24.4114C3.59952 21.114 5.69784 21.6279 8.60979 21.6279C11.5217 21.6279 13.5772 21.114 13.5772 24.4114V56.5285C13.5772 59.8687 11.4789 59.1835 8.60979 59.1835C5.74066 59.1835 3.59952 59.8687 3.59952 56.5285V24.4114Z" stroke="#FFFDFD" stroke-width="5" stroke-linecap="round" stroke-linejoin="round"/>
<path d="M22.2275 24.4117C22.2275 22.5703 22.9127 21.8851 23.9833 21.671C25.0538 21.4569 28.7366 21.671 30.0213 21.671C30.9009 21.671 31.4191 22.6546 31.6447 23.7835C31.7404 24.2622 32.4641 24.5059 32.8099 24.1613C33.7324 23.2423 34.8174 22.4954 36.0144 21.961C37.6823 21.2164 39.5122 20.9092 41.3315 21.0681C41.3567 21.0703 41.382 21.0707 41.4073 21.0692C43.1933 20.9654 44.9815 21.2357 46.6573 21.863C48.345 22.4948 49.8808 23.4745 51.1651 24.7386C52.4494 26.0027 53.4533 27.5228 54.1118 29.2003C54.7702 30.8777 55.0684 32.6749 54.987 34.475V56.4003C54.987 59.7405 52.9315 59.0553 50.0195 59.0553C47.1076 59.0553 45.0521 59.7405 45.0521 56.4003V39.2712C45.1274 38.3896 45.0121 37.5022 44.714 36.6691C44.4159 35.836 43.942 35.0768 43.3246 34.4431C42.7071 33.8094 41.9605 33.316 41.1355 32.9964C40.3104 32.6768 39.4263 32.5385 38.543 32.5908C37.6639 32.5685 36.79 32.7332 35.9793 33.0739C35.1686 33.4147 34.4395 33.9238 33.8403 34.5675C33.2411 35.2112 32.7855 35.9749 32.5036 36.8079C32.2218 37.641 32.1201 38.5244 32.2052 39.3997V56.5288C32.2052 59.869 30.1069 59.1838 27.195 59.1838C24.283 59.1838 22.2275 59.869 22.2275 56.5288V24.4117Z" stroke="#FFFDFD" stroke-width="5" stroke-linecap="round" stroke-linejoin="round"/>
</svg>
